<?xml version="1.0" encoding="UTF-8" standalone="no"?>
<svg
   height="48px"
   viewBox="0 -960 960 960"
   width="48px"
   fill="#e8eaed"
   version="1.1"
   id="svg1"
   sodipodi:docname="food_beverage.svg"
   inkscape:version="1.3.2 (091e20e, 2023-11-25, custom)"
   xmlns:inkscape="http://www.inkscape.org/namespaces/inkscape"
   xmlns:sodipodi="http://sodipodi.sourceforge.net/DTD/sodipodi-0.dtd"
   xmlns="http://www.w3.org/2000/svg"
   xmlns:svg="http://www.w3.org/2000/svg">
  <defs
     id="defs1" />
  <sodipodi:namedview
     id="namedview1"
     pagecolor="#ffffff"
     bordercolor="#000000"
     borderopacity="0.25"
     inkscape:showpageshadow="2"
     inkscape:pageopacity="0.0"
     inkscape:pagecheckerboard="0"
     inkscape:deskcolor="#d1d1d1"
     inkscape:zoom="16.1875"
     inkscape:cx="23.969112"
     inkscape:cy="23.938224"
     inkscape:window-width="1920"
     inkscape:window-height="991"
     inkscape:window-x="-9"
     inkscape:window-y="-9"
     inkscape:window-maximized="1"
     inkscape:current-layer="svg1" />
  <path
     id="path1"
     style="fill:#f9f9f9;stroke-width:1.14586"
     d="m 80.926641,-803.82668 v 492.71986 c 0,48.12608 16.788077,88.78628 50.399949,122.01621 33.61186,33.22991 74.51677,49.86281 122.64284,49.86281 h 300.2064 c 48.12608,0 88.98623,-16.6329 122.59809,-49.86281 33.61186,-33.22993 50.39995,-73.89013 50.39995,-122.01621 v -171.87902 h 110.02047 c 18.90667,0 35.09711,-6.71918 48.56477,-20.18684 13.46003,-13.46002 20.18684,-29.6581 20.18684,-48.56477 v -183.33763 c 0,-18.90667 -6.72681,-35.09711 -20.18684,-48.56477 -13.46766,-13.46003 -29.6581,-20.18683 -48.56477,-20.18683 z m 68.751609,68.7516 h 104.29118 52.68271 v 37.82234 l -82.49298,66.46884 c -6.87515,10.69469 -10.29483,17.53405 -10.29484,20.58968 v 171.87902 c 0,7.3335 2.66473,13.74674 8.01207,19.24687 5.34734,5.50013 12.23147,8.28062 20.63443,8.28062 h 172.99804 c 8.40296,0 15.28709,-2.78049 20.63443,-8.28062 5.34734,-5.50013 8.01207,-11.91337 8.01207,-19.24687 v -171.87902 c -6.11125,-12.98641 -9.53093,-19.82577 -10.29484,-20.58968 l -81.37397,-66.46884 v -37.82234 h 305.93571 v 423.96826 c 0,26.73671 -10.50374,50.60885 -31.51115,71.61626 -21.00742,21.00741 -45.26414,31.51115 -72.78003,31.51115 H 253.96943 c -26.73671,0 -50.80877,-10.50374 -72.19814,-31.51115 -21.38937,-21.00742 -32.09304,-44.87955 -32.09304,-71.61626 z m 577.49562,0 h 110.02047 v 183.33763 H 727.17387 Z" />
</svg>
