<?xml version="1.0" encoding="UTF-8" standalone="no"?>
<svg
   width="128"
   height="128"
   version="1.1"
   id="svg6"
   sodipodi:docname="icon.svg"
   inkscape:version="1.3.2 (091e20e, 2023-11-25, custom)"
   xmlns:inkscape="http://www.inkscape.org/namespaces/inkscape"
   xmlns:sodipodi="http://sodipodi.sourceforge.net/DTD/sodipodi-0.dtd"
   xmlns:xlink="http://www.w3.org/1999/xlink"
   xmlns="http://www.w3.org/2000/svg"
   xmlns:svg="http://www.w3.org/2000/svg">
  <defs
     id="defs6">
    <clipPath
       clipPathUnits="userSpaceOnUse"
       id="clipPath8">
      <use
         x="0"
         y="0"
         xlink:href="#g7"
         id="use8" />
    </clipPath>
    <clipPath
       clipPathUnits="userSpaceOnUse"
       id="clipPath2">
      <use
         x="0"
         y="0"
         xlink:href="#g1"
         id="use2" />
    </clipPath>
  </defs>
  <sodipodi:namedview
     id="namedview6"
     pagecolor="#ffffff"
     bordercolor="#000000"
     borderopacity="0.25"
     inkscape:showpageshadow="2"
     inkscape:pageopacity="0.0"
     inkscape:pagecheckerboard="0"
     inkscape:deskcolor="#d1d1d1"
     inkscape:zoom="4.2923591"
     inkscape:cx="58.010058"
     inkscape:cy="54.166018"
     inkscape:window-width="1920"
     inkscape:window-height="991"
     inkscape:window-x="-9"
     inkscape:window-y="-9"
     inkscape:window-maximized="1"
     inkscape:current-layer="svg6" />
  <g
     id="g2"
     clip-path="url(#clipPath2)"
     transform="matrix(1.0053461,0,0,1.0053461,-7.3633335,-12.206452)">
    <g
       inkscape:label="Clip"
       id="g1">
      <g
         fill="#ffffff"
         transform="matrix(0.101,0,0,0.101,12.322,12.322)"
         id="g4"
         style="display:inline">
        <path
           d="m 105,673 v 33 q 407,354 814,0 v -33 z"
           id="path1" />
        <path
           fill="#478cbf"
           d="m 105,673 152,14 q 12,1 15,14 l 4,67 132,10 8,-61 q 2,-11 15,-15 h 162 q 13,4 15,15 l 8,61 132,-10 4,-67 q 3,-13 15,-14 L 919,673 V 427 q 30,-39 56,-81 -35,-59 -83,-108 -43,20 -82,47 -40,-37 -88,-64 7,-51 8,-102 -59,-28 -123,-42 -26,43 -46,89 -49,-7 -98,0 -20,-46 -46,-89 -64,14 -123,42 1,51 8,102 -48,27 -88,64 -39,-27 -82,-47 -48,49 -83,108 26,42 56,81 z m 0,33 v 39 c 0,276 813,276 814,0 v -39 l -134,12 -5,69 q -2,10 -14,13 l -162,11 q -12,0 -16,-11 L 578,735 H 446 l -10,65 q -4,11 -16,11 L 258,800 q -12,-3 -14,-13 l -5,-69 z"
           id="path2" />
        <path
           d="m 483,600 c 0,34 58,34 58,0 v -86 c 0,-34 -58,-34 -58,0 z"
           id="path3" />
        <circle
           cx="725"
           cy="526"
           r="90"
           id="circle3" />
        <circle
           cx="299"
           cy="526"
           r="90"
           id="circle4" />
      </g>
      <g
         fill="#414042"
         transform="matrix(0.101,0,0,0.101,12.322,12.322)"
         id="g6"
         style="display:inline">
        <circle
           cx="307"
           cy="532"
           r="60"
           id="circle5" />
        <circle
           cx="717"
           cy="532"
           r="60"
           id="circle6" />
      </g>
    </g>
  </g>
  <g
     id="g8"
     clip-path="url(#clipPath8)"
     transform="matrix(1.3636364,0,0,1.3636364,-17.090953,-17.090911)">
    <g
       inkscape:label="Clip"
       id="g7">
      <circle
         style="fill:#000000;stroke-width:1.10874"
         id="path6-3"
         cx="80.000031"
         cy="80"
         r="22" />
      <circle
         style="fill:#ffff00;stroke-width:1.00795"
         id="path6"
         cx="80"
         cy="80"
         r="20" />
      <path
         id="path1-4"
         style="stroke-width:0.0387054"
         d="m 67.369142,70.31259 v 16.642591 c 0,1.625579 0.567639,2.999934 1.702955,4.12236 1.135334,1.122424 2.516545,1.683194 4.142132,1.683194 h 10.140367 c 1.625589,0 3.005136,-0.56077 4.140473,-1.683194 1.135331,-1.122426 1.702958,-2.496781 1.702958,-4.12236 v -5.805548 h 3.715556 c 0.638626,0 1.185479,-0.226946 1.640382,-0.681854 0.454644,-0.454637 0.681843,-1.001752 0.681843,-1.640379 v -6.192593 c 0,-0.638609 -0.227199,-1.185476 -0.681843,-1.640376 -0.454903,-0.454642 -1.001756,-0.681841 -1.640382,-0.681841 z m 2.322219,2.322217 h 3.522868 1.780367 v 1.276401 l -2.786664,2.244812 c -0.232223,0.361241 -0.349158,0.593456 -0.349158,0.696676 v 5.805555 c 0,0.2477 0.09114,0.464767 0.271748,0.650554 0.180619,0.18577 0.412829,0.278331 0.696665,0.278331 h 5.843444 c 0.283828,0 0.516043,-0.09251 0.696656,-0.278331 0.180622,-0.185787 0.271748,-0.402854 0.271748,-0.650554 V 76.852696 C 79.432616,76.414035 79.315686,76.181824 79.289879,76.15602 l -2.747138,-2.244812 v -1.276401 h 10.333067 v 14.320374 c 0,0.903109 -0.354356,1.709818 -1.063946,2.41939 -0.709579,0.709582 -1.529499,1.063945 -2.458912,1.063945 H 73.214229 c -0.903112,0 -1.716682,-0.354363 -2.43916,-1.063945 -0.722481,-0.709572 -1.083708,-1.516281 -1.083708,-2.41939 z m 19.506666,0 h 3.715556 V 78.8274 h -3.715556 z" />
    </g>
  </g>
</svg>
